inDegrees=no
num_controls=7
num_derivatives=13
num_iterations=43
num_multipliers=7
num_parameters=0
num_slacks=7
num_states=26
objective=0.385600
objective_accelerations=0.000000
objective_balance=0.009483
objective_effort=0.035149
objective_height=0.338661
objective_ligament=0.002307
solver_duration=551.792629
status=Solve_Succeeded
success=true
DataType=double
version=3
OpenSimVersion=4.5
endheader
time	/jointset/ground_pelvis/pelvis_tilt/value	/jointset/ground_pelvis/pelvis_tx/value	/jointset/ground_pelvis/pelvis_ty/value	/jointset/hip_l/hip_flexion_l/value	/jointset/hip_l/hip_adduction_l/value	/jointset/hip_l/hip_rotation_l/value	/jointset/back/lumbar_extension/value	/jointset/patellofemoral_l/patellar_flexion_l/value	/jointset/knee_l/knee_flexion_l/value	/jointset/knee_l/knee_adduction_l/value	/jointset/knee_l/knee_rotation_l/value	/jointset/ankle_l/ankle_angle_l/value	/jointset/subtalar_l/subtalar_angle_l/value	/jointset/ground_pelvis/pelvis_tilt/speed	/jointset/ground_pelvis/pelvis_tx/speed	/jointset/ground_pelvis/pelvis_ty/speed	/jointset/hip_l/hip_flexion_l/speed	/jointset/hip_l/hip_adduction_l/speed	/jointset/hip_l/hip_rotation_l/speed	/jointset/back/lumbar_extension/speed	/jointset/patellofemoral_l/patellar_flexion_l/speed	/jointset/knee_l/knee_flexion_l/speed	/jointset/knee_l/knee_adduction_l/speed	/jointset/knee_l/knee_rotation_l/speed	/jointset/ankle_l/ankle_angle_l/speed	/jointset/subtalar_l/subtalar_angle_l/speed	/forceset/tau_hip_flexion_l	/forceset/tau_hip_adduction_l	/forceset/tau_hip_rotation_l	/forceset/tau_knee_flexion_l	/forceset/tau_ankle_angle_l	/forceset/tau_subtalar_angle_l	/forceset/tau_lumbar_extension	lambda_cid13_p0	lambda_cid13_p1	lambda_cid13_p2	lambda_cid13_p3	lambda_cid13_p4	lambda_cid13_p5	lambda_cid14_p0	/jointset/ground_pelvis/pelvis_tilt/accel	/jointset/ground_pelvis/pelvis_tx/accel	/jointset/ground_pelvis/pelvis_ty/accel	/jointset/hip_l/hip_flexion_l/accel	/jointset/hip_l/hip_adduction_l/accel	/jointset/hip_l/hip_rotation_l/accel	/jointset/back/lumbar_extension/accel	/jointset/patellofemoral_l/patellar_flexion_l/accel	/jointset/knee_l/knee_flexion_l/accel	/jointset/knee_l/knee_adduction_l/accel	/jointset/knee_l/knee_rotation_l/accel	/jointset/ankle_l/ankle_angle_l/accel	/jointset/subtalar_l/subtalar_angle_l/accel	gamma_cid13_p0	gamma_cid13_p1	gamma_cid13_p2	gamma_cid13_p3	gamma_cid13_p4	gamma_cid13_p5	gamma_cid14_p0
0	-0.1285468022313746	0.04468532426114011	0.9005913641223722	0.3774924667018715	-0.2286091978279558	-0.07506473118936254	-0.01265067647494873	0.03223648244414041	0.03223648243721463	-0.09556335949147754	-0.02147244855974507	-0.04231377076293093	0.01808152104077384	0	0	0	0	0	0	0	0	0	0	0	0	0	0.1893915328795667	-0.0735258498899061	0.007252596446002228	-0.2171008323127681	0.1995097860299286	-0.0464239450798872	-0.1793982995844777	38.00809019186463	18.29005694714795	-8.781780762637478	6.141524442934704	-346.5378027683064	-11.97244693845504	-34.45236947780283	17.07165286473905	-5.049945167931525	-3.313982573596414	21.99432335245197	-22.71655007571611	21.45562960424251	-41.13447672416527	60.58248055608919	60.58248055608921	-38.65413081784958	-0.9663469056246365	21.6670882031486	-17.13258007240877	-2.294106399087323e-05	-0.000146640235075028	0.0002152687270723432	-1.222371045445493e-05	3.866135921294076e-05	-0.0002077732391107767	-3.484349171181686e-05
0.01	-0.1277847046012756	0.04444875340539909	0.9004522994533014	0.3785378679116737	-0.2294190906786442	-0.07416270961142811	-0.01454183061882604	0.03502076142909955	0.03502076142434806	-0.09689560287844609	-0.02147128267297135	-0.04130252877049281	0.01752910059953451	0.142174930011273	-0.04577823398668233	-0.02555858779449395	0.2066894159631615	-0.1291205612237897	0.1646030359861612	-0.3605284775823529	0.5354860918746043	0.5354860918746293	-0.2058514801095586	0.004651456300329443	0.1963404735003129	-0.07951730196170524	0.179837671219742	-0.009342499772032485	0.001726072410940587	-0.2612282536919666	0.2592987039644283	-0.05205075640631161	-0.1518267163266661	49.97818692026881	19.65422915989579	-10.1604816984713	-1.460844555640417	-459.1007896350439	-17.14180532314148	-34.54587338179082	11.24916483981469	-4.113817373230116	-1.830912734461828	19.64389752896243	-3.097814018275916	11.55221924616521	-30.85668020238522	46.83318652039998	46.83318652033492	-2.455172392758828	1.802731916178435	17.72979740630581	1.281317235465412	-1.131055950915009e-05	-4.457598612537263e-05	8.055099882738642e-05	-6.449239029508756e-06	3.237576331272364e-05	-6.87304762856738e-05	-1.528503709100409e-05
0.02	-0.1259091073260704	0.04379998923693892	0.9001268257358406	0.3815776926384452	-0.230537790117179	-0.07209674194314215	-0.01950719892472748	0.04252020393774798	0.04252020393932289	-0.09846726422988099	-0.02129923421574406	-0.03850542794707358	0.01711003163721703	0.2226999308780227	-0.08243866254382964	-0.03728180967799621	0.398884704342649	-0.06176131735377736	0.2327892179861022	-0.6148428322108068	0.9430327044397387	0.9430327044397875	-0.0478835916287467	0.03417651333417587	0.3571717663109992	0.02667029581644962	0.1702838095777454	0.05484085035208611	-0.003800451600810002	-0.3053556750523063	0.3190876219119726	-0.05767756772336116	-0.1242551330608253	62.46815533799817	20.95233771752687	-11.55650965437572	-10.6290873251073	-564.3135392271722	-21.57949401417684	-34.78314065339009	4.741667036097422	-3.226384082272131	-0.5469093914076836	19.09549783577284	16.579410943053	2.172258806985873	-19.89165213324819	34.99458469423399	34.99458469423399	34.10974290023684	4.008373241094366	14.56525206493453	20.00839987549504	3.199449725730595e-07	5.748826282428275e-05	-5.416672941757034e-05	-6.747676045625803e-07	2.609016741250653e-05	7.031228653942912e-05	4.273417529808678e-06
0.03	-0.123468138151822	0.04282282678495301	0.8997199841586029	0.3864897487987415	-0.2304050069479506	-0.06964984001107814	-0.02658646273372087	0.05362236332904598	0.05362236332735147	-0.09739591818706532	-0.02078563168767614	-0.03424220876494034	0.01829192150273323	0.263011578288498	-0.1121299131202562	-0.04491064480848639	0.5805931596367623	0.07975248847734052	0.2568560794439184	-0.7944235148182639	1.269611123037844	1.26961112303773	0.2452285791652388	0.06649977366601117	0.4916910555441812	0.2005160029859167	0.1491347753231759	0.04313050595962638	-0.001983179251520384	-0.2884125809420965	0.3006412502339299	-0.05431023339135891	-0.1036891317970786	57.81510737091943	19.9243482196967	-10.95823093827572	-11.21995702891375	-548.1160203770085	-20.80910683444931	-35.10598021019641	3.30231528931461	-2.711020621838255	-0.9892988192083931	17.26771617537456	11.65545891743474	2.575146343870247	-16.00331372294813	30.32032919773293	30.3203291976372	24.37425259418268	2.549426181811596	12.32747566775487	14.69139665806199	6.2562771737435e-07	3.534102171744368e-05	-3.360066626243931e-05	-1.707025103163898e-07	1.447156354858126e-05	4.277387254302542e-05	2.965499922482619e-06
0.04	-0.120698772173102	0.04157464681095432	0.899213168580793	0.3931307288657305	-0.2291134670176322	-0.06695202015831583	-0.03526394085015984	0.06775647865817952	0.06775647865784531	-0.09390099075301117	-0.02000777180384155	-0.02874735502753464	0.02093601654391251	0.288379293567996	-0.1366421669463834	-0.05727660979242242	0.7446694868846421	0.1699900348792393	0.282972802048876	-0.934485693326937	1.549423891841081	1.549423891840802	0.4368326869680192	0.08702798410198831	0.6034986773838908	0.319111330970317	0.1279857410726151	0.03142016156756525	-0.0001659068901243483	-0.2714694868237203	0.28219487856218	-0.05094289905772172	-0.08312313053354704	53.30615154262362	18.92914676462357	-10.43150535116881	-12.01184050587541	-529.292708401492	-19.3621925858702	-35.48901423006152	1.752880610174345	-2.190584732450065	-1.494335362106676	15.56907222658472	6.324159057223103	2.582231036405509	-11.98795131334896	25.64145473529354	25.64145473529355	13.80813030201063	1.649363261936164	10.0229185859603	8.958324038417874	6.978089830638481e-07	1.063271895995518e-05	-9.832875449574436e-06	2.246944121627908e-07	2.743000757569216e-06	1.180079510700303e-05	1.227347836225851e-06
0.05	-0.1177454952042704	0.04010704983751006	0.8985652574793077	0.4013068870288504	-0.227103318661347	-0.06401361554609809	-0.04515518566982036	0.08442981188880387	0.08442981188665979	-0.08886018390039234	-0.01907299173135156	-0.0222525878324286	0.02456098971387977	0.2999570099903944	-0.156100618093281	-0.07244159215655195	0.887273132742801	0.2312081376932263	0.3027841611058459	-1.03801031401888	1.776698995960633	1.776698995960395	0.5692635075390005	0.09856212411779082	0.6920060756749302	0.4044332904519435	0.1130619327339726	0.03468772275834984	0.0002773517350838374	-0.2694069925832575	0.2792531157746616	-0.04869012042969887	-0.06602451594232139	52.27986633640676	18.22282712367029	-10.42439371813033	-13.3941515984498	-532.5073675259274	-19.069392732965	-35.90647326792323	0.5123511217806671	-1.706936374367548	-1.5475231273632	13.11269114005362	5.896219955309036	1.393801574962136	-8.671773599735719	19.98874317280934	19.98874317275029	12.65108713370363	0.7024068154985171	7.747413714973929	8.101169225331706	4.595285177971504e-07	5.754858678888059e-06	-4.363410081206092e-06	2.792754929408902e-07	-5.802005419110904e-07	6.027189797592453e-06	7.061811469631526e-07
0.06	-0.1147460142857007	0.03846817613796913	0.8977617078633447	0.4108104177201722	-0.2245058724647667	-0.0609344546958816	-0.05590908792792163	0.1031195371457676	0.1031195371459156	-0.08255696300402084	-0.01806347676777098	-0.01497619400180301	0.02899558994305468	0.2976200849875474	-0.1708975121657136	-0.08840431268790816	1.010143993575237	0.2874496029783608	0.3111240495474474	-1.107017180780279	1.952702296981362	1.952702296981168	0.6893154960729903	0.1019749618982302	0.7598240045350053	0.4810367428246926	0.09813812440104876	0.03795528395125305	0.0007206103714603254	-0.2673444983353302	0.276311352993227	-0.04643734179816575	-0.04892590134867552	51.29234667050749	17.53664514440711	-10.45126828126047	-15.21452453526213	-535.2455658722756	-18.58866991975235	-36.32977746448336	-1.030047674612969	-1.258273317789773	-1.653882995562776	11.62251522149585	5.328831551469085	0.2879369133268802	-5.084400527106355	15.38709411556622	15.38709411556622	11.33236389462943	0.02510281487670544	5.885024699495984	7.214622616581231	2.081759796480867e-07	1.711964396828163e-06	3.355994789729146e-07	3.195064330157862e-07	-3.549491883853215e-06	1.314614893512922e-06	2.362559481002056e-07
0.07000000000000001	-0.1118401759481449	0.03670204638762965	0.8967930863957783	0.4214644340093655	-0.2213864538150145	-0.0578191718101781	-0.06718892775650727	0.1233418836059071	0.1233418836043465	-0.07514212581091342	-0.0170569644316363	-0.007116254778448125	0.03413930585499093	0.2811732117585485	-0.1818152341338339	-0.1055551673964008	1.119399939905501	0.3344066865505085	0.3109931505737331	-1.144061807880503	2.086104461681285	2.086104461681092	0.7894965297252404	0.09850118127098632	0.8096216565793002	0.5452286174436267	0.08638897330324831	0.03912678432677052	0.001237505786515654	-0.2661297779978062	0.2714703098355872	-0.04389814124716399	-0.03555592729589725	49.79256668050198	16.84818019555712	-10.51477966722562	-15.44623567463382	-535.6092385597017	-18.07241599772217	-36.7354902093162	-2.308064028116149	-0.931477316486263	-1.781710616921395	10.38826622681212	4.07494635340165	-0.3046008461885649	-2.281146898475122	11.46735619039475	11.46735619033395	8.73787202011254	-0.6576520760877208	4.145946430250097	5.649485747790634	4.237358618461834e-07	-1.370837904408661e-06	5.526294367631247e-06	4.890489059598387e-07	-5.734537379970961e-06	-4.437210415229958e-06	7.317316406335124e-08
0.08	-0.1091700177253069	0.03484214828069884	0.8956457515994094	0.4331732361342597	-0.2178583044111783	-0.05473339742226718	-0.07869254447635816	0.144728367422093	0.1447283674223571	-0.06685009849816995	-0.01610999661501583	0.001165423159799067	0.03985054368575255	0.2504840633193652	-0.1896511834839779	-0.1241469784483507	1.221101161747032	0.3691957538536407	0.3052223498613976	-1.151772558826757	2.185529768109193	2.185529768109009	0.8647535201615122	0.09006605766199496	0.8441717475550433	0.5945411265914153	0.07463982220736674	0.0402982847039919	0.001754401209156241	-0.2649150576561822	0.2666292666823639	-0.04135894069339837	-0.02218595324230682	48.26624555945816	16.17063744396782	-10.58723377620714	-16.0070797451849	-536.5906315620307	-17.70070907928859	-37.10693248456514	-3.878502716399296	-0.6419187944216449	-1.942074264266006	10.11157032380143	2.895228297683346	-0.8400434343986363	0.7823747038157599	8.591722461202068	8.591722461202068	6.34755525145275	-0.9671657814597705	2.835512485521771	4.238749522292705	6.694191260021612e-07	-4.391698787527863e-06	1.074871089038501e-05	6.669340584438368e-07	-7.868986369906485e-06	-1.025608413717692e-05	-7.011333514601301e-08
0.09	-0.1068661705499037	0.03291733117821412	0.8943067715058038	0.4458623432213678	-0.2140461159605748	-0.05171931215921869	-0.09014879195669376	0.1669589844988516	0.1669589844973101	-0.05793558734881275	-0.01527341456064678	0.00972420088920713	0.04597819127348557	0.2090324936914197	-0.1949963362784245	-0.1437269219344486	1.31554861620503	0.3912918302249828	0.2975614940798844	-1.136731502659808	2.256795036836472	2.256795036836289	0.9141253391138036	0.07668777815950892	0.865795841669272	0.6286407711446961	0.0662994976119789	0.04102789186387933	0.002369692271573996	-0.2665659091763341	0.2629619938536591	-0.03933721254719773	-0.01277530586078287	46.99487941480304	15.75154455701619	-10.79036152967087	-15.57199145990288	-538.2959845689398	-17.17487766125158	-37.43120318133744	-4.466022135646633	-0.4332927686949398	-1.979244969634777	8.935834971752682	1.57284259162233	-0.73606071699741	2.27678659238012	5.824153965427239	5.824153965370231	3.629199238444873	-1.609556036277203	1.558091389385638	2.642790862363026	-4.513484521578157e-07	-6.389436805749548e-06	6.658874465467006e-06	3.314000149119851e-07	-5.78494597594455e-06	-6.878179867656824e-06	-5.194777644549615e-07
